<?xml version="1.0" encoding="UTF-8"?>
<svg xmlns="http://www.w3.org/2000/svg" xmlns:xlink="http://www.w3.org/1999/xlink" width="50px" height="13px" viewBox="0 0 50 13" version="1.1">
<g id="surface1">
<path style=" stroke:none;fill-rule:nonzero;fill:rgb(100%,100%,100%);fill-opacity:1;" d="M 6.351562 0 C 1.269531 0 0 1.292969 0 6.476562 C 0 11.660156 1.269531 12.953125 6.351562 12.953125 C 11.433594 12.953125 12.703125 11.660156 12.703125 6.476562 C 12.703125 1.292969 11.433594 0 6.351562 0 Z M 5.308594 10.019531 C 3.96875 10.015625 2.882812 8.902344 2.886719 7.535156 C 2.886719 6.167969 3.976562 5.058594 5.320312 5.058594 C 6.664062 5.0625 7.75 6.171875 7.75 7.539062 C 7.746094 8.910156 6.65625 10.023438 5.308594 10.019531 Z M 9.726562 9.917969 L 8.535156 9.917969 L 8.535156 4.25 L 2.976562 4.25 L 2.976562 3.035156 L 9.726562 3.035156 Z M 9.726562 9.917969 "/>
<path style=" stroke:none;fill-rule:nonzero;fill:rgb(100%,100%,100%);fill-opacity:1;" d="M 6.550781 7.539062 C 6.550781 8.238281 5.996094 8.804688 5.308594 8.804688 C 4.625 8.804688 4.070312 8.238281 4.070312 7.539062 C 4.070312 6.839844 4.625 6.277344 5.308594 6.277344 C 5.996094 6.277344 6.550781 6.839844 6.550781 7.539062 Z M 6.550781 7.539062 "/>
</g>
</svg>
